<?xml version="1.0" standalone="no"?>
<!DOCTYPE svg PUBLIC "-//W3C//DTD SVG 20010904//EN"
 "http://www.w3.org/TR/2001/REC-SVG-20010904/DTD/svg10.dtd">
<svg version="1.0" xmlns="http://www.w3.org/2000/svg"
 width="378.000000pt" height="382.000000pt" viewBox="0 0 378.000000 382.000000"
 preserveAspectRatio="xMidYMid meet">

<g transform="translate(0.000000,382.000000) scale(0.100000,-0.100000)"
fill="#6694F9" stroke="none">
<path d="M1 2958 c1 -776 3 -854 15 -773 121 781 719 1407 1504 1572 114 24
145 27 365 27 258 1 315 -6 515 -61 326 -90 628 -272 863 -523 142 -151 235
-283 323 -461 90 -180 146 -358 178 -564 13 -81 14 -3 15 778 l1 867 -1890 0
-1890 0 1 -862z"/>
<path d="M1860 3209 c-25 -10 -480 -457 -480 -471 0 -5 63 -8 140 -8 l140 0 0
-260 0 -260 230 0 230 0 0 260 0 260 140 0 c77 0 140 4 140 8 0 12 -465 472
-477 472 -6 0 -17 2 -25 4 -7 3 -24 0 -38 -5z"/>
<path d="M813 2177 c-300 -302 -293 -259 -75 -480 86 -88 191 -195 232 -236
l75 -76 3 143 3 142 259 0 260 0 0 225 0 225 -260 0 -259 0 -3 146 -3 145
-232 -234z"/>
<path d="M2730 2268 l0 -148 -265 0 -266 0 3 -222 3 -223 263 -3 262 -2 0
-143 0 -142 235 235 c234 235 235 236 235 279 0 43 -1 44 -235 280 l-235 236
0 -147z"/>
<path d="M1 853 l-1 -853 928 2 c510 1 900 3 867 5 -322 16 -681 134 -940 306
-215 144 -418 347 -556 557 -151 228 -258 524 -292 805 -2 17 -5 -354 -6 -822z"/>
<path d="M3770 1663 c0 -43 -45 -248 -75 -343 -59 -183 -161 -381 -285 -550
-83 -113 -282 -311 -401 -398 -283 -208 -642 -338 -1009 -365 -25 -2 366 -4
868 -5 l912 -2 0 845 c0 465 -2 845 -5 845 -3 0 -5 -12 -5 -27z"/>
<path d="M1666 1583 c-3 -4 -6 -122 -6 -264 l0 -258 -142 -3 -143 -3 235 -237
236 -238 44 0 45 0 234 237 234 238 -142 3 -141 3 -2 262 -3 262 -221 2 c-122
1 -225 -1 -228 -4z"/>
</g>
</svg>
