<?xml version="1.0" standalone="no"?>
<!DOCTYPE svg PUBLIC "-//W3C//DTD SVG 20010904//EN"
 "http://www.w3.org/TR/2001/REC-SVG-20010904/DTD/svg10.dtd">
<svg version="1.0" xmlns="http://www.w3.org/2000/svg"
 width="1200.000000pt" height="1200.000000pt" viewBox="0 0 1200.000000 1200.000000"
 preserveAspectRatio="xMidYMid meet">

<g transform="translate(0.000000,1200.000000) scale(0.100000,-0.100000)"
fill="#6694F9" stroke="none">
<path d="M2255 11975 c-569 -123 -1052 -390 -1428 -789 -398 -423 -642 -954
-719 -1566 -19 -154 -19 -6794 0 -6950 17 -139 64 -371 100 -495 111 -384 338
-773 627 -1074 408 -425 889 -685 1464 -792 283 -52 189 -51 3706 -51 2890 1
3279 3 3430 17 558 51 1025 233 1455 565 124 96 357 329 450 450 336 439 515
892 570 1449 7 68 10 1228 10 3405 0 2867 -2 3318 -15 3431 -55 481 -202 897
-444 1263 -186 281 -488 576 -784 766 -93 60 -323 179 -417 217 -104 41 -283
99 -381 124 -233 59 69 55 -3884 54 l-3630 -1 -110 -23z m2208 -2726 c68 -23
85 -32 228 -126 97 -63 113 -80 103 -107 -6 -17 -192 -153 -259 -190 -93 -53
-123 -56 -482 -56 -183 0 -333 -3 -333 -8 0 -4 226 -230 502 -502 301 -298
506 -508 515 -527 18 -43 17 -125 -2 -171 -21 -49 -91 -119 -134 -133 -46 -15
-128 -14 -168 3 -19 8 -246 226 -532 511 -275 273 -504 497 -510 497 -6 0 -11
-112 -13 -322 -4 -381 -2 -376 -123 -554 -84 -123 -126 -169 -149 -161 -23 9
-176 227 -205 293 l-26 59 -3 650 c-2 434 0 662 7 686 13 44 62 113 96 135 66
43 70 43 763 44 646 0 664 -1 725 -21z m4543 -6 c52 -28 108 -90 125 -139 11
-32 14 -162 14 -674 0 -737 6 -687 -109 -858 -88 -131 -128 -177 -148 -169
-18 6 -142 170 -186 244 -64 108 -65 118 -71 476 l-6 329 -508 -504 c-319
-316 -520 -507 -540 -515 -51 -19 -142 -16 -186 7 -106 53 -158 185 -116 288
11 26 168 189 518 537 l502 500 -355 5 -355 5 -75 36 c-85 41 -285 180 -294
206 -4 10 2 25 16 40 40 43 242 168 308 190 l65 23 680 -3 c677 -2 680 -2 721
-24z m-2139 -3344 c202 -84 519 -214 703 -289 465 -191 1229 -505 1325 -545
44 -19 156 -65 249 -104 92 -38 171 -73 174 -76 4 -3 -7 -29 -23 -58 -36 -64
-216 -370 -221 -376 -6 -7 -56 12 -238 88 l-169 70 -66 -36 c-83 -46 -262
-152 -279 -166 -10 -8 78 -102 386 -411 220 -221 408 -417 418 -436 29 -54 26
-181 -4 -240 -57 -109 -155 -174 -262 -174 -114 0 -118 3 -558 450 l-399 404
-109 -151 c-59 -83 -107 -159 -107 -169 1 -9 27 -101 58 -204 49 -159 55 -190
44 -201 -17 -16 -416 -235 -429 -235 -5 0 -13 15 -19 33 -17 54 -404 1373
-486 1657 -42 146 -89 308 -105 360 -15 52 -61 208 -100 345 -40 138 -94 325
-121 416 -50 170 -56 199 -39 199 5 0 175 -68 377 -151z m-3663 -952 c36 -46
83 -117 105 -158 67 -123 71 -154 71 -491 0 -206 3 -298 11 -298 6 0 233 222
505 493 310 308 508 498 532 509 46 22 131 23 180 2 46 -19 98 -68 123 -116
23 -45 25 -134 5 -181 -8 -18 -233 -250 -520 -537 -278 -278 -506 -508 -506
-512 0 -4 161 -8 358 -10 l357 -3 67 -32 c70 -33 154 -87 251 -160 72 -55 74
-78 14 -126 -63 -50 -183 -126 -246 -156 l-56 -26 -685 -3 c-457 -2 -697 0
-721 7 -58 17 -124 74 -153 133 l-26 52 0 636 c0 705 -1 696 66 820 56 102
161 240 183 240 13 0 43 -30 85 -83z"/>
</g>
</svg>
