<?xml version="1.0" standalone="no"?>
<!DOCTYPE svg PUBLIC "-//W3C//DTD SVG 20010904//EN"
 "http://www.w3.org/TR/2001/REC-SVG-20010904/DTD/svg10.dtd">
<svg version="1.0" xmlns="http://www.w3.org/2000/svg"
 width="1200.000000pt" height="1200.000000pt" viewBox="0 0 1200.000000 1200.000000"
 preserveAspectRatio="xMidYMid meet">

<g transform="translate(0.000000,1200.000000) scale(0.100000,-0.100000)"
fill="#6694F9" stroke="none">
<path d="M3650 11949 c-255 -9 -861 -46 -975 -59 -44 -5 -129 -14 -190 -20
-60 -5 -137 -14 -170 -20 -33 -5 -105 -17 -160 -25 -188 -30 -454 -96 -605
-150 -218 -77 -480 -223 -635 -352 -202 -168 -417 -446 -524 -677 -196 -422
-270 -754 -356 -1606 -9 -85 -20 -191 -25 -234 -6 -49 -10 -1122 -10 -2815 0
-2369 2 -2755 15 -2876 8 -77 22 -205 31 -285 37 -348 103 -741 161 -960 88
-334 232 -635 419 -880 74 -98 245 -272 331 -337 101 -78 337 -214 438 -253
222 -87 436 -150 659 -195 227 -45 835 -104 1381 -134 561 -31 699 -33 2675
-29 2006 4 2244 8 2685 43 39 3 133 10 210 15 193 13 505 39 535 45 14 3 79
12 145 20 460 58 868 183 1163 357 432 255 740 665 912 1214 62 200 132 533
160 764 17 144 40 326 50 405 6 44 15 123 20 175 13 128 13 5724 0 5805 -5 33
-18 152 -30 265 -84 840 -204 1290 -453 1692 -50 80 -151 219 -191 262 -117
127 -157 165 -250 239 -58 46 -118 90 -133 97 -16 8 -41 24 -58 36 -94 66
-294 158 -470 216 -319 105 -790 182 -1335 218 -91 6 -230 15 -310 20 -359 24
-927 30 -2855 28 -1122 0 -2137 -5 -2255 -9z m2387 -1251 c12 -13 48 -66 80
-118 33 -52 113 -176 179 -275 65 -99 121 -184 124 -190 6 -12 39 -63 136
-212 99 -150 103 -159 77 -184 l-20 -21 -199 27 c-109 14 -211 28 -226 31 -19
4 -33 -1 -47 -15 -21 -21 -21 -29 -21 -496 0 -512 0 -513 -52 -549 -48 -34
-134 -9 -164 46 -10 18 -13 132 -14 503 0 360 -3 484 -12 493 -17 17 -80 15
-293 -12 -174 -22 -191 -23 -208 -9 -11 11 -15 24 -11 37 4 12 57 98 119 191
61 94 133 204 160 245 27 41 76 118 110 170 34 52 94 147 134 210 105 165 110
169 148 128z m-3197 -1398 c52 -10 190 -42 305 -70 116 -28 298 -71 405 -96
239 -55 257 -61 271 -85 14 -27 12 -29 -166 -172 -164 -133 -174 -142 -175
-173 0 -14 106 -127 328 -349 180 -181 335 -340 344 -354 23 -34 23 -88 -2
-128 -22 -37 -82 -60 -127 -49 -19 5 -132 114 -362 347 -184 187 -342 344
-352 350 -10 5 -24 6 -33 3 -8 -3 -68 -71 -133 -151 -65 -79 -127 -155 -138
-169 -29 -34 -53 -31 -70 9 -12 29 -132 517 -154 630 -5 23 -30 131 -55 239
-62 260 -65 255 114 218z m6480 5 c22 -26 25 -11 -126 -635 -120 -498 -121
-500 -160 -485 -11 3 -56 52 -102 108 -148 184 -197 237 -216 237 -8 0 -171
-160 -363 -355 l-350 -355 -43 0 c-36 0 -48 6 -81 39 -32 32 -39 46 -39 77 0
22 4 45 8 52 5 7 162 167 350 356 230 231 342 350 342 364 0 22 -13 34 -190
174 -148 117 -160 128 -160 154 0 31 13 37 175 74 203 45 493 114 700 164 198
49 237 53 255 31z m-3040 -1344 c268 -69 448 -169 631 -351 130 -129 163 -176
254 -360 88 -179 114 -296 124 -570 8 -185 12 -223 31 -270 43 -110 85 -163
170 -219 l55 -36 175 -2 c224 -3 213 6 208 -180 -2 -91 -7 -136 -16 -145 -9
-9 -67 -14 -205 -18 l-192 -5 -135 -67 c-118 -58 -145 -76 -201 -135 -123
-127 -149 -206 -160 -483 -5 -113 -13 -230 -18 -260 -5 -30 -10 -101 -10 -156
-1 -117 -10 -144 -76 -232 -110 -146 -330 -275 -599 -349 -123 -34 -422 -44
-537 -19 -235 53 -464 160 -601 282 -41 36 -112 124 -136 168 -18 33 -24 119
-40 551 -8 217 -9 221 -41 300 -42 103 -63 137 -131 209 -47 51 -74 68 -198
127 l-144 69 -177 0 c-237 0 -223 -11 -219 176 2 115 6 147 18 154 8 5 87 10
175 10 147 0 164 2 210 24 67 31 148 120 188 203 31 67 31 70 38 278 8 225 9
234 46 368 32 118 67 208 110 287 131 240 320 420 568 540 134 65 207 91 340
120 125 27 371 23 495 -9z m-3960 -1281 c12 -22 5 -88 -31 -311 -25 -156 -23
-191 11 -200 14 -4 247 -7 518 -8 l494 -1 34 -34 c28 -28 34 -42 34 -76 0 -34
-6 -48 -34 -76 l-34 -34 -510 0 c-443 0 -511 -2 -522 -15 -15 -19 -11 -68 25
-294 29 -179 29 -209 2 -225 -27 -17 -32 -14 -804 497 -145 96 -183 126 -183
143 0 18 40 49 191 151 504 340 758 503 781 503 10 0 22 -9 28 -20z m7581 -85
c282 -180 772 -509 783 -528 8 -12 8 -22 0 -34 -10 -16 -349 -246 -605 -412
-63 -41 -145 -95 -184 -121 -98 -66 -159 -100 -179 -100 -43 0 -41 75 10 354
18 99 18 160 0 175 -10 8 -155 11 -516 11 -556 -1 -532 -3 -564 65 -22 46 -14
83 26 124 21 21 40 31 62 31 17 0 239 0 493 0 254 0 473 2 487 6 13 3 26 13
29 23 2 9 -4 73 -15 141 -48 325 -48 323 -32 348 8 12 20 22 28 22 7 0 87 -47
177 -105z m-5791 -2318 c42 -21 72 -76 67 -121 -5 -36 -35 -69 -351 -385 -227
-228 -346 -354 -346 -367 0 -22 30 -49 214 -199 143 -115 149 -123 124 -158
-12 -16 -103 -40 -408 -107 -47 -11 -146 -33 -220 -50 -473 -109 -483 -111
-503 -79 -8 12 16 126 87 430 54 228 109 461 122 519 31 137 42 167 61 174 17
7 56 -31 138 -134 28 -34 55 -68 60 -74 6 -6 36 -42 68 -79 32 -37 65 -67 73
-67 8 0 173 160 367 355 329 332 355 355 387 355 19 0 46 -6 60 -13z m3994
-89 c207 -217 601 -608 612 -608 12 0 108 104 179 195 80 101 138 165 151 165
27 0 43 -49 93 -270 28 -124 73 -322 101 -440 91 -386 92 -393 81 -417 -7 -16
-19 -23 -37 -23 -23 0 -172 33 -594 130 -69 16 -197 45 -285 65 -88 20 -168
38 -177 41 -24 7 -48 32 -48 50 0 7 77 77 170 155 94 77 175 150 181 161 10
18 -25 56 -340 372 l-351 352 0 45 c0 82 58 133 140 124 29 -4 51 -21 124 -97z
m-2016 -783 l32 -35 0 -478 c0 -381 3 -482 13 -496 16 -22 54 -20 308 10 169
20 209 15 209 -25 0 -11 -49 -93 -108 -183 -104 -157 -162 -245 -392 -599 -57
-88 -113 -167 -124 -175 -31 -21 -51 -2 -143 139 -47 73 -118 182 -158 242
-349 532 -365 558 -365 577 0 42 56 47 235 22 181 -25 276 -29 286 -13 5 8 9
231 9 495 0 478 0 481 22 509 49 63 122 67 176 10z"/>
<path d="M4925 6595 c-25 -24 -25 -26 -25 -203 0 -215 -8 -201 160 -286 63
-33 180 -92 259 -133 191 -98 198 -99 336 -30 61 30 116 62 124 71 10 12 14
46 15 113 0 95 0 97 -29 120 -24 19 -474 243 -702 349 -67 31 -107 31 -138 -1z"/>
<path d="M6950 6600 c-19 -11 -187 -95 -373 -186 -274 -134 -340 -170 -348
-190 -5 -14 -9 -62 -9 -108 0 -73 3 -85 23 -103 33 -31 226 -123 257 -123 25
0 424 194 543 264 72 42 77 59 77 245 0 157 0 160 -26 190 -21 26 -33 31 -67
31 -23 0 -58 -9 -77 -20z"/>
<path d="M5924 5748 c-142 -64 -502 -253 -521 -274 -21 -23 -23 -34 -23 -154
l0 -129 38 -31 c20 -18 151 -90 290 -161 209 -106 261 -129 297 -129 35 0 90
23 301 129 143 72 273 141 289 154 l30 25 3 134 c3 121 2 136 -17 159 -11 15
-124 78 -280 158 -295 149 -321 157 -407 119z"/>
</g>
</svg>
