<?xml version="1.0" standalone="no"?>
<!DOCTYPE svg PUBLIC "-//W3C//DTD SVG 20010904//EN"
 "http://www.w3.org/TR/2001/REC-SVG-20010904/DTD/svg10.dtd">
<svg version="1.0" xmlns="http://www.w3.org/2000/svg"
 width="1200.000000pt" height="1200.000000pt" viewBox="0 0 1200.000000 1200.000000"
 preserveAspectRatio="xMidYMid meet">

<g transform="translate(0.000000,1200.000000) scale(0.100000,-0.100000)"
fill="#6694F9" stroke="none">
<path d="M2895 11983 c-222 -10 -452 -43 -660 -94 -206 -50 -497 -160 -643
-243 -35 -20 -66 -36 -68 -36 -8 0 -208 -122 -244 -149 -19 -14 -39 -29 -45
-33 -25 -18 -171 -133 -175 -138 -3 -3 -18 -16 -35 -28 -71 -54 -320 -311
-364 -375 -8 -12 -18 -24 -21 -27 -22 -17 -99 -134 -93 -143 3 -6 1 -7 -5 -3
-24 15 -190 -276 -315 -554 -80 -178 -169 -546 -199 -815 -19 -176 -19 -6503
0 -6680 22 -202 59 -393 101 -525 10 -30 28 -91 41 -135 12 -44 37 -111 54
-150 18 -38 38 -86 46 -105 7 -19 20 -43 28 -52 8 -10 12 -18 9 -18 -7 0 47
-105 89 -175 13 -22 27 -47 30 -55 21 -45 162 -248 212 -305 10 -11 25 -31 34
-45 8 -14 45 -56 82 -95 37 -38 83 -87 102 -108 19 -20 34 -36 34 -35 0 2 36
-32 80 -74 235 -225 584 -441 915 -568 104 -39 294 -99 340 -105 6 -1 17 -5
25 -8 65 -25 374 -73 565 -87 107 -8 1045 -10 3270 -8 2844 4 3132 5 3255 21
160 20 313 44 355 57 17 5 46 12 65 15 47 7 313 95 421 139 113 45 273 126
371 187 44 27 82 49 84 49 3 0 28 17 57 38 29 21 76 55 104 75 29 20 61 43 70
51 211 170 418 383 565 581 157 212 299 486 408 785 13 36 58 190 64 220 41
197 57 293 73 431 17 155 18 331 18 3319 0 1735 -3 3204 -8 3263 -21 304 -83
574 -212 917 -40 109 -204 423 -235 450 -3 3 -10 16 -16 30 -14 32 -152 217
-224 301 -75 88 -311 320 -366 361 -25 18 -62 47 -82 64 -37 31 -209 154 -217
154 -2 0 -39 22 -82 48 -108 68 -307 164 -438 212 -132 49 -300 101 -337 105
-14 2 -31 6 -37 9 -17 11 -193 46 -202 40 -5 -3 -17 0 -27 5 -10 5 -84 18
-163 27 -134 17 -354 18 -3264 19 -1716 1 -3151 0 -3190 -2z m5303 -4006 c1
-368 -2 -617 -7 -617 -5 0 -96 116 -203 257 -106 141 -199 264 -205 272 -11
14 -18 10 -55 -29 -23 -25 -75 -81 -117 -125 -337 -357 -495 -524 -536 -572
-21 -24 -45 -43 -54 -43 -9 0 -54 38 -101 85 l-84 85 54 57 c30 31 60 62 65
68 6 7 35 39 65 71 30 33 116 124 190 204 74 80 162 174 196 210 139 149 164
177 164 186 0 10 -76 45 -310 140 -91 37 -184 75 -207 86 -24 10 -54 23 -68
28 -41 16 -29 26 48 39 39 7 160 30 267 51 107 21 290 57 405 79 116 22 266
51 335 65 69 14 132 24 140 23 13 -2 15 -80 18 -620z m-3663 -39 c83 -90 324
-346 431 -458 50 -52 110 -117 134 -143 l44 -49 -87 -84 c-49 -46 -92 -84 -97
-84 -4 0 -41 35 -81 77 -105 109 -242 255 -329 348 -41 44 -115 121 -163 171
-123 128 -124 129 -90 151 15 9 30 19 33 21 2 1 -1 7 -9 11 -10 6 -9 10 4 14
9 4 13 3 10 -3 -13 -21 12 -8 47 24 42 38 79 66 89 66 4 0 32 -28 64 -62z
m1589 -783 c190 -16 361 -80 539 -201 102 -69 249 -217 291 -293 5 -9 13 -18
17 -21 11 -7 82 -147 107 -210 70 -176 98 -428 68 -608 -39 -237 -156 -468
-326 -643 -139 -143 -355 -260 -575 -312 -73 -17 -121 -21 -255 -21 -154 0
-173 3 -285 33 -131 35 -256 90 -348 155 -32 22 -68 48 -80 56 -42 28 -169
155 -205 205 -20 28 -39 52 -42 55 -17 14 -90 155 -113 216 -44 120 -56 166
-73 289 -55 385 96 777 398 1030 145 122 297 201 471 245 83 20 263 40 317 34
14 -2 56 -6 94 -9z m2454 -313 c65 -53 177 -140 317 -247 65 -49 123 -95 129
-100 12 -11 259 -203 380 -294 39 -30 83 -63 97 -75 15 -11 39 -30 55 -41 15
-11 41 -31 57 -45 l29 -26 -214 -160 c-117 -88 -305 -229 -418 -314 -113 -85
-209 -158 -215 -162 -5 -5 -50 -39 -100 -76 -122 -92 -155 -115 -161 -110 -2
3 21 61 51 129 66 147 75 167 108 239 57 124 147 330 147 335 0 3 -300 6 -666
7 l-666 3 1 125 c1 68 3 126 5 127 1 2 298 3 659 3 431 0 657 4 657 11 0 5
-22 58 -49 117 -27 59 -59 130 -71 157 -12 28 -37 82 -55 120 -18 39 -47 104
-65 145 -17 41 -40 93 -51 116 -32 67 -26 69 39 16z m-4103 -812 l0 -125 -375
-3 c-206 -1 -381 0 -388 3 -9 3 -10 8 -2 17 25 31 80 122 129 216 l12 22 312
-2 312 -3 0 -125z m115 -980 c396 -115 657 -475 638 -880 -6 -106 -30 -213
-69 -297 -10 -24 -19 -45 -19 -49 0 -16 -94 -148 -141 -198 -60 -63 -176 -149
-256 -190 -28 -14 -91 -38 -140 -53 -79 -24 -103 -27 -243 -27 -140 0 -164 3
-243 27 -186 57 -311 140 -452 302 -67 77 -131 216 -160 348 -26 117 -16 344
18 444 49 141 110 238 216 344 138 137 245 195 446 241 108 24 298 19 405 -12z
m2537 -222 c88 -92 252 -264 308 -323 17 -18 83 -87 148 -153 64 -66 117 -125
117 -130 0 -10 -78 -92 -88 -92 -4 -1 -25 -19 -47 -40 -22 -22 -42 -40 -46
-40 -6 0 -75 71 -437 449 -40 42 -108 113 -152 158 -44 45 -80 85 -80 89 0 11
164 172 177 173 7 1 52 -40 100 -91z m558 -668 c-27 -12 -43 -12 -25 0 8 5 22
9 30 9 10 0 8 -3 -5 -9z m-45 -44 c0 -2 -7 -7 -16 -10 -8 -3 -12 -2 -9 4 6 10
25 14 25 6z m23 -33 c-7 -2 -19 -2 -25 0 -7 3 -2 5 12 5 14 0 19 -2 13 -5z
m-98 -43 c-3 -5 -11 -10 -16 -10 -6 0 -7 5 -4 10 3 6 11 10 16 10 6 0 7 -4 4
-10z"/>
</g>
</svg>
